<?xml version="1.0" encoding="UTF-8"?>
<svg width="341px" height="189px" viewBox="0 0 341 189" version="1.1" xmlns="http://www.w3.org/2000/svg" xmlns:xlink="http://www.w3.org/1999/xlink">
    <!-- Generator: Sketch 51.2 (57519) - http://www.bohemiancoding.com/sketch -->
    <title>Stroke 4</title>
    <desc>Created with Sketch.</desc>
    <defs></defs>
    <g id="Page-1" stroke="none" stroke-width="1" fill="none" fill-rule="evenodd" stroke-dasharray="7" stroke-linecap="round" stroke-linejoin="round">
        <g id="FrutoGame_MAP" transform="translate(-178.000000, -127.000000)" stroke="#FFFFFF" stroke-width="2">
            <g id="KONKURS" transform="translate(88.000000, 123.000000)">
                <g id="BUBBLE" transform="translate(86.000000, 0.000000)">
                    <path d="M259.229785,191.743119 C244.996284,187.754315 232.347686,178.817513 223.000498,165.993623 L221.025325,163.281192 L217.616137,163.7154 C203.563022,165.506916 189.012994,166.414706 174.371071,166.414706 C128.504163,166.414706 85.4735187,157.66493 53.2013861,141.778618 C22.1420394,126.488385 5.03597122,106.583739 5.03597122,85.7297418 C5.03597122,64.8768386 22.1420394,44.9710986 53.2013861,29.6808654 C85.4723842,13.7945537 128.504163,5.04587156 174.371071,5.04587156 C220.237978,5.04587156 263.269758,13.7945537 295.539621,29.6808654 C326.600102,44.9710986 343.705036,64.8768386 343.705036,85.7297418 C343.705036,113.290442 312.700146,139.593362 262.789862,154.375014 L259.430592,155.370301 L258.858802,158.713809 C257.977291,163.867427 257.531431,169.074638 257.531431,174.191069 C257.531431,180.105917 258.100952,185.981392 259.229785,191.743119 Z" id="Stroke-4" transform="translate(174.370504, 98.394495) scale(-1, 1) translate(-174.370504, -98.394495) "></path>
                </g>
            </g>
        </g>
    </g>
</svg>