<?xml version="1.0" encoding="UTF-8"?>
<svg width="39px" height="39px" viewBox="0 0 39 39" version="1.1" xmlns="http://www.w3.org/2000/svg" xmlns:xlink="http://www.w3.org/1999/xlink">
    <!-- Generator: Sketch 51.2 (57519) - http://www.bohemiancoding.com/sketch -->
    <title>Fill 1</title>
    <desc>Created with Sketch.</desc>
    <defs></defs>
    <g id="Page-1" stroke="none" stroke-width="1" fill="none" fill-rule="evenodd">
        <g id="FrutoMain_PopUp" transform="translate(-1046.000000, -1274.000000)" fill="#FFFFFF">
            <path d="M1065.43686,1282.99851 L1066.25106,1282.99851 C1068.88811,1282.99851 1071.52516,1283.00341 1074.16221,1282.99544 C1074.97237,1282.99238 1074.98448,1282.97582 1074.99256,1282.22731 C1075.00467,1281.16799 1074.99929,1280.10806 1074.99525,1279.04813 C1074.99054,1277.92382 1075.09349,1278.00352 1073.88162,1278.0029 C1069.77094,1278.00168 1065.66094,1278.00229 1061.55026,1278.00229 C1059.96022,1278.00229 1058.37086,1277.99494 1056.78082,1278.00658 C1056.03257,1278.0121 1056.01709,1278.02865 1056.00835,1278.72077 C1055.99556,1279.8512 1055.9996,1280.98163 1056.00633,1282.11206 C1056.01238,1282.98257 1056.01911,1282.99422 1056.94501,1282.99606 C1059.77585,1283.00219 1062.60602,1282.99851 1065.43686,1282.99851 M1065.37982,1309.99852 C1068.28942,1309.99852 1071.19969,1310.00323 1074.1093,1309.99583 C1074.97888,1309.99382 1074.99301,1309.97835 1074.99503,1309.09065 C1075.00176,1305.67975 1075.00176,1302.26884 1074.99436,1298.85727 C1074.99234,1298.02673 1074.97551,1298.00588 1074.17324,1298.00454 C1068.39374,1297.99849 1062.61357,1297.99849 1056.83273,1298.00454 C1056.02507,1298.00521 1056.0069,1298.02606 1056.00488,1298.85121 C1055.99815,1302.26212 1055.99882,1305.67302 1056.00421,1309.08393 C1056.00623,1309.98575 1056.02103,1309.99516 1057.001,1309.99718 C1059.79349,1310.00189 1062.58733,1309.99852 1065.37982,1309.99852 M1065.51919,1286.01141 C1063.30663,1286.01141 1061.09341,1286.01141 1058.88085,1286.01141 C1056.18023,1286.01141 1053.48025,1286.01561 1050.78028,1286.0079 C1050.32996,1286.0065 1049.99677,1286.01421 1050.00002,1286.6913 C1050.02475,1290.56483 1050.01955,1294.43906 1050.00393,1298.31329 C1050.00198,1298.85665 1050.20826,1299.00859 1050.67225,1298.99319 C1051.42127,1298.96868 1052.17224,1298.97148 1052.92191,1298.99249 C1053.3527,1299.00439 1053.52646,1298.82724 1053.51669,1298.3588 C1053.49717,1297.47094 1053.50563,1296.58308 1053.51474,1295.69523 C1053.52385,1294.64422 1053.52971,1294.64422 1054.51104,1294.62601 C1054.58588,1294.62461 1054.66137,1294.62601 1054.73621,1294.62601 C1061.90035,1294.62601 1069.06319,1294.62601 1076.22668,1294.62601 C1076.45184,1294.62601 1076.67765,1294.64002 1076.90151,1294.62882 C1077.34077,1294.60711 1077.49304,1294.84728 1077.48849,1295.29121 C1077.47808,1296.21968 1077.48003,1297.14745 1077.49109,1298.07592 C1077.50085,1298.96868 1077.50866,1298.97428 1078.37872,1298.98618 C1079.01581,1298.99459 1079.6555,1298.95678 1080.29063,1298.99669 C1080.83401,1299.0303 1081.00191,1298.81043 1080.99865,1298.23276 C1080.98043,1294.39915 1080.97848,1290.56553 1080.99995,1286.73191 C1081.00386,1286.10943 1080.75918,1285.95959 1080.25875,1286.0086 C1080.03554,1286.03031 1079.80908,1286.01141 1079.58392,1286.01141 C1074.89589,1286.01141 1070.20786,1286.01141 1065.51919,1286.01141 M1055.55616,1312.99468 C1053.79635,1313.04517 1052.65064,1311.70309 1052.7151,1310.16539 C1052.81491,1307.78485 1052.74421,1305.39661 1052.74005,1303.01186 C1052.73798,1301.72168 1052.84333,1301.80792 1051.60335,1301.80512 C1050.64409,1301.80301 1049.68136,1301.74411 1048.72764,1301.81774 C1047.08566,1301.94465 1045.98084,1300.50722 1046.00025,1299.13219 C1046.06471,1294.56535 1046.01619,1289.9971 1046.02936,1285.42956 C1046.03491,1283.73619 1046.9616,1282.79941 1048.61328,1282.76996 C1049.61205,1282.75172 1050.61151,1282.76715 1051.60959,1282.76575 C1052.78511,1282.76364 1052.74144,1282.8562 1052.74144,1281.6733 C1052.74144,1280.09703 1052.82392,1278.51514 1052.71995,1276.94518 C1052.59658,1275.07511 1053.98557,1273.98336 1055.56171,1274.00019 C1062.19408,1274.06961 1068.82714,1274.02543 1075.45951,1274.03175 C1077.36557,1274.03315 1078.26176,1274.92927 1078.27562,1276.82668 C1078.28602,1278.32232 1078.26799,1279.81795 1078.28047,1281.31359 C1078.29364,1282.98662 1078.07878,1282.74331 1079.77274,1282.76364 C1080.6114,1282.77416 1081.45076,1282.75804 1082.29011,1282.76785 C1084.03883,1282.78889 1084.98354,1283.70043 1084.98908,1285.43517 C1085.00364,1290.00342 1085.00364,1294.57096 1084.98908,1299.1385 C1084.98354,1300.82836 1084.05269,1301.77006 1082.40448,1301.80091 C1081.40501,1301.81914 1080.40624,1301.80372 1079.40747,1301.80512 C1078.23334,1301.80722 1078.2777,1301.71466 1078.27839,1302.89897 C1078.27839,1304.96047 1078.27839,1307.02196 1078.2777,1309.08345 C1078.2777,1309.36603 1078.25205,1309.65212 1078.28186,1309.93189 C1078.49949,1311.9422 1077.06961,1313.13562 1075.33198,1312.98767 C1074.14191,1312.886 1072.93659,1312.96804 1071.73751,1312.96804 C1069.61937,1312.96804 1067.50261,1312.96804 1065.38446,1312.96804 C1062.10813,1312.96804 1058.82972,1312.90143 1055.55616,1312.99468 Z" id="Fill-1"></path>
        </g>
    </g>
</svg>