<?xml version="1.0" encoding="UTF-8"?>
<svg width="35px" height="37px" viewBox="0 0 35 37" version="1.1" xmlns="http://www.w3.org/2000/svg" xmlns:xlink="http://www.w3.org/1999/xlink">
    <!-- Generator: sketchtool 51.2 (57519) - http://www.bohemiancoding.com/sketch -->
    <title>01EC7313-1D1C-4372-97D9-AC4260DFB01A</title>
    <desc>Created with sketchtool.</desc>
    <defs></defs>
    <g id="Page-1" stroke="none" stroke-width="1" fill="none" fill-rule="evenodd" stroke-linecap="round">
        <g id="FrutoMain_PopUp-Copy-2" transform="translate(-168.000000, -528.000000)" stroke="#FFFFFF" stroke-width="2">
            <g id="Group-9" transform="translate(186.000000, 547.000000) rotate(-315.000000) translate(-186.000000, -547.000000) translate(177.000000, 527.000000)">
                <path d="M18,9 L18,31 C18,35.9705627 13.9705627,40 9,40 C4.02943725,40 0,35.9705627 0,31 L0,25.6259766" id="Rectangle-5"></path>
                <path d="M15,10.5 L15,28.8333333 C15,32.975469 11.6421356,36.3333333 7.5,36.3333333 C3.35786438,36.3333333 0,32.975469 0,28.8333333 L-8.8817842e-16,5.93613452 C-1.2896711e-15,2.65769795 2.65769795,6.02239028e-16 5.93613452,0 L5.93613452,0 C9.21457109,-6.02239028e-16 11.872269,2.65769795 11.872269,5.93613452 L11.872269,29.0025939" id="Rectangle-5" transform="translate(7.500000, 18.166667) rotate(-180.000000) translate(-7.500000, -18.166667) "></path>
            </g>
        </g>
    </g>
</svg>